<!--?xml version="1.0" encoding="utf-8"?-->
<!-- Generator: Adobe Illustrator 18.1.1, SVG Export Plug-In . SVG Version: 6.00 Build 0)  -->

<svg version="1.1" id="_x32_" xmlns="http://www.w3.org/2000/svg" xmlns:xlink="http://www.w3.org/1999/xlink" x="0px" y="0px" viewBox="0 0 512 512" style="width: 256px; height: 256px; opacity: 1;" xml:space="preserve">
<style type="text/css">
	.st0{fill:#4B4B4B;}
</style>
<g>
	<path class="st0" d="M405.972,62.12c-82.83-82.826-217.114-82.826-299.94,0c-82.815,82.811-82.815,217.11,0,299.929L255.999,512
		l149.972-149.952C488.782,279.23,488.782,144.93,405.972,62.12z M255.999,83.79c32.118,0,58.156,26.039,58.156,58.16
		c0,32.129-26.039,58.16-58.156,58.16c-32.126,0-58.164-26.031-58.164-58.16C197.835,109.829,223.874,83.79,255.999,83.79z
		 M172.552,305.423c0-46.084,37.36-83.448,83.448-83.448c46.08,0,83.444,37.364,83.444,83.448H172.552z" style="fill: rgb(42, 204, 146);"></path>
</g>
</svg>
